<svg xmlns="http://www.w3.org/2000/svg" xmlns:xlink="http://www.w3.org/1999/xlink" width="183" height="183" viewBox="0 0 183 183"><defs><path id="a" d="M1410.68 379.42v-1.49h102.64v1.49zM1378.69 430c-3.7 0-6.7-3-6.7-6.7v-32.94l20.81-32.7-8.8-85a20.57 20.57 0 0 1 20.44-22.66h115.11a20.57 20.57 0 0 1 20.44 22.67l-8.8 85 20.78 32.7.03 32.93c0 1.79-.7 3.47-1.96 4.73a6.66 6.66 0 0 1-4.74 1.97zm161.41-1.49h5.2c1.4 0 2.7-.54 3.69-1.53a5.15 5.15 0 0 0 1.52-3.68l-.03-31.98h-10.38v11.9h-1.49v-11.9h-10.41v11.9h-1.49v-11.9h-10.41v11.9h-1.49v-11.9h-10.41v11.9h-1.49v-11.9h-10.41v11.9h-1.5v-11.9h-10.4v11.9h-1.5v-11.9h-10.4v11.9h-1.5v-11.9h-10.4v11.9h-1.5v-11.9h-10.4v11.9h-1.5v-11.9H1433v11.9h-1.49v-11.9h-10.41v11.9h-1.49v-11.9h-10.41v11.9h-1.49v-11.9h-10.41v11.9h-1.49v-11.9h-10.41v11.9h-1.5v-11.9h-10.4v31.98c0 2.87 2.33 5.21 5.2 5.21h5.2v-5.95h1.5v5.95h10.41v-5.95h1.49v5.95h10.41v-5.95h1.49v5.95h10.41v-5.95h1.49v5.95h10.41v-5.95h1.49v5.95h10.41v-5.95h1.5v5.95h10.4v-5.95h1.5v5.95h10.4v-5.95h1.5v5.95h10.4v-5.95h1.5v5.95h10.4v-5.95h1.5v5.95h10.41v-5.95h1.49v5.95h10.41v-5.95h1.49v5.95h10.41v-5.95h1.49v5.95h10.41v-5.95h1.49zm-166-38.68h175.77l-19.85-31.24h-21.16v-1.48h20.9l8.75-84.6a19.08 19.08 0 0 0-18.96-21.02h-115.1a19.08 19.08 0 0 0-18.96 21.02l8.75 84.6h20.9v1.48h-21.16z"/><path id="b" d="M1482.76 277.51h-2.24v-1.48h2.24zm-4.47 0h-2.24v-1.48h2.24zm-4.47 0h-2.24v-1.48h2.24zm-4.48 0h-2.23v-1.48h2.23zm-4.47 0h-2.24v-1.48h2.24zm-4.47 0h-2.24v-1.48h2.24zm-4.47 0h-2.24v-1.48h2.24zm-4.48 0h-2.23v-1.48h2.23zm-4.47 0h-2.24v-1.48h2.24zm-4.47 0h-1.84l-1.02 1.53-1.24-.83 1.24-1.85.62.41v-.74h2.24zm52.25 17.28l1.25-.83 1.24 1.86-.62.4.55.51-1.52 1.64-1.1-1 1.12-1.21zm-1.23-1.86l-1.24-1.85 1.24-.83 1.23 1.86zm-2.48-3.7l-1.25-1.86 1.25-.82 1.24 1.85zm-2.49-3.71l-1.24-1.86 1.24-.82 1.24 1.85zm-2.48-3.71l-1.24-1.85 1.24-.83 1.24 1.86zm-2.48-3.7l-.61-.93 1.24-.82.61.92zm-56.96 17.7l.6-.9 1.25.81-.29.44 1.12 1.2-1.1 1.01-1.51-1.64.55-.5zm3.1-1.94l-1.25-.82 1.24-1.86 1.24.83zm2.47-3.7l-1.24-.83 1.24-1.86 1.24.83zm2.48-3.72l-1.24-.82 1.24-1.85 1.24.82zm2.48-3.7l-1.24-.83 1.24-1.85 1.24.82zm24.97 49.86l.7-.75 1.1 1-.39.42c.27 0 .54.01.8.03l-.06 1.48c-.72-.03-1.45-.05-2.2-.05v-1.48h.77zm3.3-1.39l-1.1-1 1.52-1.64 1.1 1zm3.02-3.28l-1.1-1 1.52-1.65 1.1 1zm3.03-3.29l-1.1-1 1.51-1.64 1.1 1zm3.02-3.28l-1.1-1 1.51-1.65 1.1 1zm3.02-3.29l-1.1-1 1.51-1.64 1.1 1zm3.03-3.28l-1.1-1 1.5-1.65 1.1 1zm3.02-3.29l-1.1-1 1.5-1.64 1.1 1zm3.02-3.28l-1.1-1 1.51-1.65 1.1 1zm3.02-3.29l-1.1-1 1.51-1.64 1.1 1zm3.02-3.28l-1.1-1 1.52-1.65 1.1 1zm-32 31.95l-.69-.75 1.1-1 .7.75zm-2.2-2.39l-1.51-1.64 1.1-1 1.5 1.64zm-3.02-3.28l-1.51-1.65 1.1-1 1.5 1.64zm-3.02-3.29l-1.52-1.64 1.1-1 1.52 1.64zm-3.03-3.28l-1.51-1.65 1.1-1 1.51 1.64zm-3.02-3.29l-1.51-1.64 1.1-1 1.51 1.64zm-3.02-3.28l-1.51-1.64 1.1-1 1.51 1.63zm-3.02-3.29l-1.51-1.64 1.1-1 1.5 1.64zm-3.03-3.28l-1.5-1.65 1.1-1 1.5 1.64zm-3.02-3.29l-1.5-1.64 1.1-1 1.5 1.64zm-3.02-3.28l-1.51-1.64 1.1-1.01 1.5 1.64zm-5.8 68.09h-1.49c0-.03 0-.88.14-2.31l1.48.14a26.37 26.37 0 0 0-.12 2.17zm72.9-1.88a41.9 41.9 0 0 0-.25-2.18l1.47-.2c.1.77.2 1.53.26 2.26zm-72.5-2.48l-1.48-.21c.11-.74.24-1.5.4-2.24l1.45.29a44.5 44.5 0 0 0-.37 2.16zm71.88-1.87c-.13-.71-.29-1.44-.46-2.14l1.45-.35c.18.73.34 1.48.48 2.22zm-71.03-2.43l-1.44-.36c.18-.74.39-1.48.6-2.2l1.43.44c-.21.69-.4 1.4-.59 2.12zm70-1.83c-.2-.7-.44-1.4-.68-2.09l1.4-.5c.26.72.5 1.44.7 2.16zm-68.72-2.37l-1.4-.5c.26-.72.54-1.43.83-2.12l1.37.58c-.28.66-.55 1.35-.8 2.04zm67.25-1.77a37.6 37.6 0 0 0-.9-2l1.34-.64c.33.68.65 1.38.94 2.08zm-65.53-2.26l-1.34-.66c.35-.69.7-1.36 1.08-2l1.29.73c-.36.62-.7 1.27-1.03 1.93zm63.62-1.67c-.36-.64-.74-1.26-1.13-1.87l1.25-.8c.4.62.8 1.28 1.18 1.94zm-61.44-2.12l-1.25-.81c.42-.64.87-1.26 1.32-1.86l1.2.9c-.45.57-.87 1.17-1.27 1.77zm59.06-1.54c-.44-.58-.9-1.15-1.37-1.7l1.13-.96c.5.57.98 1.17 1.43 1.78zm-56.42-1.91l-1.12-.98a30.9 30.9 0 0 1 1.57-1.66l1.05 1.06c-.51.5-1.02 1.03-1.5 1.58zm53.57-1.38c-.5-.5-1.04-1-1.59-1.48l.97-1.12c.58.5 1.14 1.02 1.68 1.56zm-50.46-1.67l-.97-1.13c.58-.49 1.18-.96 1.8-1.41l.87 1.2c-.58.42-1.16.88-1.7 1.34zm47.17-1.17c-.58-.43-1.18-.85-1.79-1.23l.8-1.26c.64.41 1.27.85 1.88 1.3zm-43.66-1.39l-.79-1.26c.64-.4 1.3-.78 1.98-1.13l.7 1.3c-.64.35-1.28.71-1.9 1.1zm40-.95a31.5 31.5 0 0 0-1.96-.96l.62-1.36c.7.32 1.38.66 2.04 1.02zm-36.15-1.08l-.61-1.36c.69-.3 1.4-.6 2.11-.85l.52 1.4c-.69.24-1.37.52-2.02.8zm32.18-.72c-.67-.25-1.36-.49-2.07-.7l.44-1.42c.74.22 1.46.47 2.16.73zm-28.09-.79l-.42-1.42c.7-.21 1.45-.4 2.2-.58l.33 1.44c-.71.17-1.42.36-2.1.56zm23.9-.5c-.7-.16-1.41-.32-2.13-.45l.27-1.46c.75.14 1.5.3 2.22.48zm-19.64-.5l-.26-1.47c.73-.13 1.48-.24 2.24-.34l.2 1.48a42 42 0 0 0-2.18.33zm15.34-.3c-.7-.1-1.43-.17-2.18-.24l.12-1.48c.78.07 1.54.15 2.26.25zm-10.98-.26l-.12-1.48c.74-.06 1.49-.1 2.26-.13l.05 1.48c-.74.03-1.48.07-2.2.13z"/></defs><g transform="translate(-1370 -248)"><use fill="#3e3e3e" xlink:href="#a"/></g><g transform="translate(-1370 -248)"><use fill="#baab82" xlink:href="#b"/></g></svg>