<svg xmlns="http://www.w3.org/2000/svg" xmlns:xlink="http://www.w3.org/1999/xlink" width="122" height="122" viewBox="0 0 122 122"><defs><path id="a" d="M1146.45 3287c-1.85 0-3.47-1.22-5.03-2.4-1.27-.99-2.53-1.9-3.7-2.08a3.57 3.57 0 0 0-.6-.05c-1.08 0-2.33.43-3.53.85l-.24.08c-1.31.45-2.67.9-3.94.9-.5 0-.93-.06-1.35-.2-1.74-.55-2.94-2.28-4-3.8-.87-1.28-1.78-2.6-2.92-3.17-.9-.46-2.1-.53-3.26-.53l-1.04.01-1 .01c-1.82 0-3.26-.17-4.37-.98-1.44-1.07-2.05-3.08-2.6-4.85-.49-1.6-.93-3.03-1.8-3.9-.87-.88-2.32-1.32-3.84-1.79l-.15-.04c-1.37-.42-2.77-.85-3.83-1.64l1.04-.76c.83.52 1.95.88 3.25 1.26 1.62.5 3.32 1.03 4.4 2.12 1.1 1.09 1.58 2.66 2.09 4.32l.03.1c.5 1.67 1.01 3.42 2.16 4.24.92.65 2.3.74 3.64.74h1.03l.97-.02c1.34 0 2.75.08 3.9.67 1.35.7 2.36 2.14 3.32 3.53 1.03 1.47 2.05 2.93 3.38 3.37.31.1.63.14 1 .14 1.02 0 2.19-.37 3.42-.76l.2-.07c1.52-.53 2.85-.96 4.15-.96.26 0 .51.01.76.05 1.53.25 2.9 1.3 4.22 2.3 1.4 1.06 2.85 2.15 4.3 2.15 1.43 0 2.88-1.1 4.28-2.15 1.42-1.08 2.73-2.08 4.23-2.3.24-.03.48-.05.73-.05 1.32 0 2.66.45 4.09.94l.18.06c1.2.4 2.43.83 3.49.83.38 0 .72-.06 1.03-.16 1.32-.45 2.4-2 3.35-3.37 1-1.47 2-2.84 3.34-3.53 1.14-.58 2.55-.66 3.9-.66h.96l1.01.02c1.34 0 2.71-.09 3.63-.75 1.08-.8 1.6-2.33 2.16-4.25.5-1.62 1.02-3.32 2.11-4.4 1.1-1.1 2.66-1.58 4.33-2.09l.32-.1c1.12-.35 2.18-.69 3-1.22l1 .74c-1.07.81-2.5 1.25-3.91 1.68-1.6.49-3.04.93-3.91 1.8-.88.88-1.32 2.32-1.79 3.84l-.05.16c-.55 1.82-1.13 3.7-2.56 4.75-1.11.82-2.56 1-4.38 1a106.41 106.41 0 0 1-2.05-.03c-1.17 0-2.37.07-3.28.55-1.1.55-2.01 1.87-2.9 3.15-1.05 1.52-2.24 3.25-3.98 3.8-.42.14-.86.2-1.35.2-1.28 0-2.63-.45-3.95-.9l-.1-.03c-1.24-.44-2.53-.9-3.66-.9-.22 0-.43.02-.63.05-1.14.18-2.38 1.11-3.59 2.02l-.22.16c-1.53 1.13-3.11 2.3-4.9 2.3zm-55.42-52.02c-.4-.79-1-1.59-1.58-2.37l-.16-.21c-1.13-1.54-2.3-3.12-2.3-4.9 0-1.85 1.22-3.47 2.4-5.03.98-1.27 1.9-2.53 2.07-3.7.2-1.28-.34-2.8-.84-4.27l-.04-.1c-.6-1.8-1.23-3.66-.7-5.3.56-1.73 2.29-2.93 3.81-3.99 1.27-.88 2.6-1.79 3.16-2.92.58-1.13.55-2.75.52-4.3v-.11c-.03-1.9-.05-3.87.98-5.27 1.07-1.44 3.07-2.05 4.84-2.6 1.6-.48 3.03-.92 3.91-1.8.87-.87 1.31-2.31 1.78-3.84.51-1.75 1.11-3.81 2.61-4.9 1.12-.83 2.56-1 4.4-1l.98.01 1.05.02c1.17 0 2.38-.07 3.28-.55 1.1-.55 2.01-1.88 2.9-3.15 1.05-1.52 2.25-3.25 3.98-3.8.42-.14.86-.21 1.35-.21 1.28 0 2.64.46 3.95.9l.1.04c1.32.46 2.6.89 3.7.89.2 0 .38-.02.55-.04 1.19-.19 2.43-1.12 3.63-2.02l.22-.16c1.53-1.13 3.11-2.3 4.9-2.3 1.75 0 3.3 1.08 5.01 2.39 1.28 1 2.54 1.9 3.71 2.09.19.02.37.04.56.04 1.15 0 2.51-.48 3.71-.9 1.36-.46 2.74-.93 4.05-.93.49 0 .93.07 1.34.2 1.74.56 2.94 2.29 4 3.81.88 1.27 1.79 2.6 2.92 3.16.9.47 2.1.54 3.26.54l1.05-.02h.98c1.83 0 3.27.16 4.38.98 1.46 1.04 2.05 2.97 2.62 4.83.5 1.6.93 3.05 1.81 3.92.87.88 2.31 1.32 3.83 1.78 1.76.51 3.82 1.12 4.92 2.62 1.03 1.4 1 3.37.98 5.27v.1c-.03 1.58-.06 3.22.53 4.34.56 1.1 1.87 2.01 3.15 2.9 1.52 1.05 3.25 2.25 3.8 3.98.54 1.64-.09 3.5-.7 5.3l-.03.1c-.55 1.55-1.03 3.04-.85 4.26.19 1.18 1.12 2.42 2.02 3.63l.16.21c1.13 1.53 2.3 3.12 2.3 4.9 0 1.85-1.22 3.46-2.4 5.02-.64.84-1.25 1.66-1.65 2.46l-1.24-.2c.46-1.05 1.2-2.03 1.93-2.99 1.06-1.4 2.15-2.85 2.15-4.3 0-1.43-1.1-2.88-2.15-4.28-1.02-1.35-2.07-2.73-2.3-4.24-.23-1.53.31-3.13.89-4.82.57-1.68 1.14-3.36.73-4.66-.45-1.36-2-2.44-3.37-3.39-1.47-1-2.84-2-3.53-3.34-.7-1.38-.68-3.15-.65-4.86.03-1.73.06-3.52-.74-4.64-.8-1.08-2.33-1.6-4.25-2.16-1.62-.5-3.32-1.02-4.4-2.11-1.1-1.1-1.58-2.67-2.09-4.33-.52-1.77-1.04-3.51-2.19-4.33-.92-.66-2.3-.75-3.64-.75a53.85 53.85 0 0 0-2 .02c-1.34 0-2.75-.08-3.9-.66-1.3-.68-2.24-2-3.24-3.42l-.09-.12c-.94-1.36-2.03-2.91-3.36-3.36-.3-.1-.64-.15-1.02-.15-1.06 0-2.3.42-3.5.83l-.12.04c-1.29.45-2.73.96-4.07.96-.27 0-.53-.02-.78-.06-1.55-.25-2.92-1.3-4.24-2.3-1.4-1.06-2.85-2.15-4.3-2.15-1.44 0-2.88 1.1-4.28 2.15-1.35 1.02-2.73 2.07-4.24 2.3-.23.04-.47.05-.73.05-1.3 0-2.65-.45-4.08-.94l-.17-.05c-1.2-.41-2.44-.83-3.5-.83-.38 0-.72.05-1.03.16-1.23.4-2.2 1.7-3.36 3.36-1.03 1.53-2 2.84-3.34 3.53-1.13.58-2.54.66-3.88.66a71.42 71.42 0 0 1-1.99-.02c-1.34 0-2.7.09-3.62.75-1.08.8-1.6 2.33-2.17 4.25-.5 1.62-1.02 3.32-2.1 4.4-1.1 1.1-2.67 1.58-4.34 2.1-1.76.52-3.5 1.04-4.33 2.18-.8 1.08-.76 2.8-.73 4.64.02 1.71.05 3.48-.65 4.87-.7 1.36-2.14 2.36-3.53 3.33-1.47 1.02-2.94 2.05-3.37 3.38-.43 1.25.1 2.83.67 4.5l.05.13c.57 1.62 1.15 3.28.9 4.85-.25 1.55-1.3 2.92-2.3 4.24-1.06 1.41-2.15 2.86-2.15 4.3s1.1 2.89 2.15 4.29c.77 1.01 1.5 1.97 1.94 2.99zm55.45 38.73a45.78 45.78 0 0 1-27.18-8.84l.74-.96a44.53 44.53 0 0 0 26.44 8.6c9.58 0 18.69-2.98 26.43-8.6l.74.96a45.77 45.77 0 0 1-27.17 8.84zm-45.97-41.72a46.26 46.26 0 0 1 45.97-50.7 46.26 46.26 0 0 1 46 50.7l-1.18-.14a45.07 45.07 0 0 0-44.8-49.38 45.07 45.07 0 0 0-44.8 49.38z"/></defs><g transform="translate(-1085 -3166)"><text fill="#baab82" dominant-baseline="text-before-edge" font-family="Helvetica, Arial, sans-serif" font-size="11.02" font-style="none" font-weight="400" style="text-transform:uppercase;line-height:34.77789px" transform="translate(1099 3241)"/></g><g transform="translate(-1085 -3166)"><text fill="#ee8b76" dominant-baseline="text-before-edge" font-family="Helvetica, Arial, sans-serif" font-size="36.73" font-style="none" font-weight="400" style="text-transform:uppercase;line-height:34.77789px" transform="translate(1119 3208)"/></g><g transform="translate(-1085 -3166)"><use fill="#606060" xlink:href="#a"/></g></svg>