<svg xmlns="http://www.w3.org/2000/svg" xmlns:xlink="http://www.w3.org/1999/xlink" width="104" height="138" viewBox="0 0 104 138"><defs><path id="a" d="M768.1 3220.2a.64.64 0 0 1 0-1.27h8.55c.37 0 .64.28.64.64 0 .35-.28.64-.64.64zm-41.24 53.78a4.88 4.88 0 0 1-4.36-2.69 4.98 4.98 0 0 1-.31-3.8l2.79-8.9a24.67 24.67 0 0 1 10.6-12.7l.75-.44v-.87c-.05-6.51-.47-13-1.24-19.27-3.3-28.26 8.79-41.06 12.57-44.3l.53-.46v-8.27c0-13.4 10.84-24.3 24.18-24.3a24.26 24.26 0 0 1 24.18 24.3v8.27l.52.45c3.78 3.25 15.86 16.03 12.58 44.32a159.18 159.18 0 0 0-1.27 19.26v.87l.75.44a24.42 24.42 0 0 1 10.6 12.67l2.84 8.94c.16.49.23.96.2 1.45 0 2.8-2.2 5.03-4.92 5.03zm73.97-13.57v12.26h17.05a3.62 3.62 0 0 0 3.4-4.87l-2.78-8.82a23.52 23.52 0 0 0-21.83-15.26h-2.16l.14 1.63c.2 2.31-.35 4.6-1.58 6.6a6.5 6.5 0 0 1-.83.93l-1.58 1.4 9.79 5.55c.06.04.13.09.17.14.09.08.1.1.12.15l.1.21v.08zm-55.6 12.26h54.33v-11.6h-54.34zm-8.17-26.18A23.52 23.52 0 0 0 726.2 3259l-2.8 8.86a3.82 3.82 0 0 0 .53 3.3c.68.94 1.78 1.5 2.94 1.5h17.05v-12.26c0-.07.01-.1.02-.12l.06-.14.11-.19.09-.06 9.87-5.6-1.6-1.4c-.29-.26-.59-.6-.83-.94a10.78 10.78 0 0 1-1.56-6.59l.14-1.63h-2.3c-3.58 0-7.17.87-10.4 2.52h-.03zm10 13.3h50.7l-12.89-7.3h-24.96zm32-17.24a3.67 3.67 0 0 0-1.74 3.12v5.51h7.71a.7.7 0 0 1 .34.1l3.42 1.92.59-.15a4.87 4.87 0 0 0 2.68-1.86l.05-.07.05-.08a10.1 10.1 0 0 0 1.2-6l-.15-1.32h-3.7a.65.65 0 0 1-.62-.48l-1.68-5.62zm-27.66 2.5c-.23 2.04.18 4.11 1.2 5.98l.05.08.05.08a4.68 4.68 0 0 0 2.73 1.84l.57.13 3.4-1.92c.11-.05.22-.08.33-.08h7.71v-5.51c0-1.3-.68-2.5-1.77-3.14l-8.12-4.89-1.68 5.63a.66.66 0 0 1-.63.47h-3.69zm5.92-17.73l.06.45.04.22c.31 2.44.44 4.92.37 7.36l-.03.88 8.6 5.19a4.96 4.96 0 0 1 2.38 4.25v5.51h7.28v-5.5c0-1.76.9-3.35 2.4-4.27l8.58-5.18-.02-.88c-.08-2.44.05-4.92.36-7.35l.02-.15c.04-.23.07-.46.07-.7v-3.43l-2.51 2.33a80.26 80.26 0 0 1-4.14 3.61 13.35 13.35 0 0 1-16.82 0 81.42 81.42 0 0 1-4.14-3.61l-2.95-2.73zm-15.46-36.83c-3.6 6.38-7.45 17.58-5.45 34.67.72 6.35 1.14 12.2 1.24 17.42l.04 2.1 1.97-.72a24.2 24.2 0 0 1 8.44-1.52h6.7l1.62-5.44.01-.17c.21-2.94.13-5.88-.26-8.72-.29-2.43-.69-4.78-1.17-6.95l-.09-.4-.27-.29a16.86 16.86 0 0 1-4.28-9.69l-.18-1.93-1.82.67c-.08.02-.22.04-.37.05-.2 0-.4-.04-.63-.12-2.99-1.02-3.43-8.92-3.43-13.54a11.5 11.5 0 0 1 .64-4.19zm52.56 20.32a16.86 16.86 0 0 1-4.27 9.69l-.27.29-.09.4c-.5 2.19-.89 4.53-1.18 6.94a42.58 42.58 0 0 0-.26 8.7l.02.17 1.61 5.44h6.7c2.88 0 5.72.5 8.44 1.52l1.97.73.05-2.1c.12-5.74.54-11.6 1.24-17.42 1.94-16.73-1.82-27.9-5.31-34.31l-2.75 1.15c.4 1.33.58 2.63.54 3.87 0 4.67-.44 12.57-3.44 13.6-.23.07-.43.11-.62.12a3.33 3.33 0 0 1-.5-.1l-1.7-.47zm-44.86-26.5c0 .22-.03.42-.04.63l-.06.85v.07l.03.56c.02 1.3.22 2.7.6 4.1a52.4 52.4 0 0 1 1.58 18.8 24.2 24.2 0 0 0-.05 1.53c0 5.93 7.16 13 13.16 17.88a12.1 12.1 0 0 0 15.2 0c6-4.87 13.17-11.92 13.17-17.88 0-.5 0-1.04-.06-1.57a52.32 52.32 0 0 1 1.58-18.77c.37-1.3.58-2.7.6-4.14l.03-.27v-.07c0-.62-.02-1.2-.08-1.76l-.21-2.17-5.81 2.92a2.8 2.8 0 0 1-3.27-.6c-.5-.54-.97-.98-1.48-1.38a19.6 19.6 0 0 0-12.52-3.8c-4.19 0-8.18 1.3-11.55 3.77-.52.4-1.02.87-1.51 1.39a2.81 2.81 0 0 1-3.29.6l-5.9-2.97zm47.44 7.06c-.4.18-.72.37-1.03.6l-.42.34-.12.52a49.88 49.88 0 0 0-1.21 12.84l.01.45.27.37c.34.48.77.9 1.1 1.2l1.38 1.3.93-1.65c.5-.88 1.65-3.74 1.65-11.38.09-1.3-.1-2.56-.54-3.75l-.56-1.5zm-51.75 4.59c0 7.64 1.15 10.5 1.65 11.38l.93 1.64 1.38-1.28c.38-.36.74-.75 1.06-1.16l.3-.39.02-.5a50.9 50.9 0 0 0-1.26-12.82l-.12-.52-.42-.33c-.32-.25-.63-.42-.87-.56l-1.52-.84-.6 1.63a9 9 0 0 0-.55 3.75zm.32-10.94a31.4 31.4 0 0 0-3.02 4.28l2.51 1.62c.26-.37.58-.64.98-.83.25-.1.55-.16.88-.16h1.73l-.25-1.72c-.09-.57-.14-1.16-.16-1.85v-.12l-.03-.11v-4.26zm52.45 4.9c.23 0 .51.07.8.2.26.12.54.34.75.6l2.43-1.74a33.4 33.4 0 0 0-2.78-3.9l-2.09-2.53-.54 3.23a3.7 3.7 0 0 0-.04.66c-.02.56-.07 1.21-.14 1.82l-.2 1.76zm-25.62-22.45c-7.3.06-14.14 3.3-18.78 8.91a27.6 27.6 0 0 0-2.28 3.2l-.86 1.39 6.73 3.4.76-.88c.43-.48.95-.98 1.57-1.47 3.59-2.68 7.9-4.11 12.4-4.11H772.86c4.52 0 8.82 1.42 12.43 4.12.58.47 1.12.97 1.6 1.5l.76.83 6.67-3.39-.84-1.38a25.18 25.18 0 0 0-2.32-3.24 24.43 24.43 0 0 0-18.76-8.88zm10.68-8.73c.35 0 .63.28.63.64v9.48l.78.46a26.5 26.5 0 0 1 7.62 6.2c.09.1.15.19.21.28l.25.35 2.68 3.46v-7.33a23 23 0 0 0-22.88-23 23 23 0 0 0-22.89 23v1.5h.03v5.45l2.62-3.02c.14-.15.27-.33.4-.52l.16-.22a26.45 26.45 0 0 1 7.58-6.15l.78-.43v-9.51c0-.36.28-.64.64-.64zm-10.7 7.45c2.76 0 5.48.45 8.08 1.34l1.98.67v-8.18h-20.12v8.18l1.98-.67a25.17 25.17 0 0 1 8.09-1.34zm-2.14 45.43a.64.64 0 0 1 0-1.28h4.28c.36 0 .64.29.64.64 0 .35-.28.64-.64.64zm-8.55-10.79a.64.64 0 0 1-.64-.64v-3.64h-3.63a.64.64 0 0 1 0-1.28h8.55c.23 0 .37.12.44.2.07.06.18.2.18.4 0 .4-.29.68-.64.68h-3.63v3.64c0 .36-.28.64-.63.64zm21.39 0a.64.64 0 0 1-.64-.64v-3.64h-3.63a.64.64 0 0 1-.63-.64c0-.35.28-.64.63-.64h8.55a.6.6 0 0 1 .44.2c.07.06.18.2.17.4 0 .4-.28.68-.63.68h-3.63v3.64c0 .36-.28.64-.63.64z"/><path id="b" d="M800.95 3260.95zm0 0v18a21.46 21.46 0 0 0-.14 3.43l.03.36h-56.75a2.23 2.23 0 0 1-.06-.19l-.02-.6c0-.18-.03-.35-.06-.52v-20.4c0-.07.02-.11.02-.13l.06-.14.12-.19.08-.06 9.9-5.62h-.01a4.9 4.9 0 0 0 1.24-.75 4 4 0 0 0 .63-.38l.02-.02h.03l3.42-1.93c.07-.03.14-.04.22-.06h25.44c.1 0 .22.03.34.1l3.07 1.74c.1.08.21.16.33.23.74.41 1.4.93 2.2 1.21l9.5 5.41.18.14c.08.08.1.1.1.15l.1.22zm-53.86-.54h50.79l-12.92-7.35h-25zm52.58 1.28h-54.42v19.74h54.42z"/></defs><g transform="translate(-720 -3146)"><use fill="#606060" xlink:href="#a"/></g><g transform="translate(-720 -3146)"><use fill="#ee8b76" xlink:href="#b"/></g></svg>