<svg xmlns="http://www.w3.org/2000/svg" xmlns:xlink="http://www.w3.org/1999/xlink" width="104" height="103" viewBox="0 0 104 103"><defs><path id="a" d="M1472.83 3283v-100h59.91l14.55 14.5v85.5zm1.29-1.29l1.5.02h70.39v-82.4h-15.07v-15.03h-56.82zm58.1-83.68h13.76l-13.75-13.72zm-11.4 61.37a.66.66 0 0 1-.66-.65c0-.36.3-.65.66-.65h12.91a.65.65 0 1 1 0 1.3zm-34.42-36.47a.65.65 0 0 1 0-1.3h47.33c.36 0 .67.3.68.67 0 .34-.3.63-.66.63zm0 12.87a.65.65 0 1 1 0-1.3h47.33c.36 0 .67.3.68.68 0 .33-.3.62-.66.62zm0-25.77a.65.65 0 0 1 0-1.3h23.66c.36 0 .66.3.66.65 0 .36-.3.65-.66.65z"/><path id="b" d="M1559.85 3273.84l2.9-10.15h-3.15v-56.44a7.1 7.1 0 0 1 14.22 0v56.44h-3.17l2.93 10.15-6.87 4.55zm1.5-.55l5.37 3.56 5.33-3.56-2.75-9.6h-5.2zm5.36-71.83a5.8 5.8 0 0 0-5.8 5.79v55.15h11.6v-55.15a5.8 5.8 0 0 0-5.8-5.79z"/><path id="c" d="M1495 3272.17l-4.96 1.66v-9.39l-.6-.45a9.22 9.22 0 0 1 5.55-16.62 9.22 9.22 0 0 1 5.56 16.61l-.6.45v9.4zm-3.65-.13l3.66-1.23.86.3 1.04.34h1.75l.02-1.5v-4.66l-1.8.36a9.4 9.4 0 0 1-3.72 0l-1.81-.37zm3.64-23.38a7.96 7.96 0 0 0-7.96 7.94 7.96 7.96 0 0 0 15.92 0 7.96 7.96 0 0 0-7.96-7.94zm0 8.6a.66.66 0 0 1-.65-.64.66.66 0 0 1 1.3 0c0 .36-.29.65-.65.65z"/></defs><g transform="translate(-1471 -3181)"><use fill="#606060" xlink:href="#a"/></g><g transform="translate(-1471 -3181)"><use fill="#baab82" xlink:href="#b"/></g><g transform="translate(-1471 -3181)"><use fill="#ee8b76" xlink:href="#c"/></g></svg>