<svg xmlns="http://www.w3.org/2000/svg" xmlns:xlink="http://www.w3.org/1999/xlink" width="22" height="22" viewBox="0 0 22 22"><defs><path id="a" d="M1677.4 73.8c.94 0 1.72-.78 1.73-1.74a1.73 1.73 0 0 0-1.74-1.73c-.94 0-1.73.76-1.74 1.7 0 .97.76 1.75 1.72 1.76zm-9.66 0c.95 0 1.73-.78 1.74-1.74a1.72 1.72 0 0 0-1.74-1.73c-.95 0-1.73.76-1.74 1.7-.01.97.76 1.75 1.72 1.76zm11.4-4.85v-1.53h-10.99c-.24-.02-.43-.21-.42-.51l.05-.15.92-1.7h7.32c.62 0 1.2-.33 1.5-.89l3.63-6.62-1.32-.75-.98 1.78-2.72 4.96h-7.03l-.17-.39-3.08-6.52-.85-1.82h-2.83v1.53h1.85l3.58 7.57-1.36 2.47a1.74 1.74 0 0 0 1.52 2.56z"/></defs><g transform="translate(-1661 -53)"><use fill="#606060" xlink:href="#a"/></g></svg>