<svg xmlns="http://www.w3.org/2000/svg" xmlns:xlink="http://www.w3.org/1999/xlink" width="22" height="22" viewBox="0 0 22 22"><defs><path id="a" d="M1677.4 73.8c.95 0 1.73-.78 1.74-1.74a1.72 1.72 0 0 0-1.74-1.73c-.95 0-1.73.76-1.74 1.71-.01.96.76 1.75 1.72 1.75zm-9.65 0c.94 0 1.73-.78 1.74-1.74a1.72 1.72 0 0 0-1.74-1.73c-.95 0-1.74.76-1.75 1.71 0 .96.77 1.75 1.73 1.75zm11.39-4.85v-1.53h-10.98c-.25-.02-.44-.21-.43-.51l.05-.15.93-1.7h7.31c.63 0 1.2-.33 1.5-.89l3.63-6.62-1.31-.75-.99 1.78-2.71 4.96h-7.03l-.17-.39-3.09-6.52-.85-1.82h-2.82v1.53h1.85l3.58 7.57-1.36 2.47a1.74 1.74 0 0 0 1.52 2.56z"/></defs><g transform="translate(-1661 -53)"><use fill="#606060" xlink:href="#a"/></g></svg>