<svg xmlns="http://www.w3.org/2000/svg" xmlns:xlink="http://www.w3.org/1999/xlink" width="25" height="22" viewBox="0 0 25 22"><defs><path id="a" d="M1596.24 72.1l-7.09-6.9c-1.52-1.54-2.28-3-2.28-4.38 0-.6.08-1.19.26-1.75.25-.86.86-1.57 1.67-1.95a4.71 4.71 0 0 1 3.7-.17c.48.21.94.48 1.35.8a14.72 14.72 0 0 1 1.8 1.63.78.78 0 0 0 1.18 0 10.55 10.55 0 0 1 1.79-1.64c.42-.31.87-.58 1.35-.79.43-.2.9-.3 1.37-.31a4.8 4.8 0 0 1 2.34.48 3.06 3.06 0 0 1 1.67 1.95c.18.56.27 1.16.25 1.75 0 1.39-.76 2.85-2.29 4.4zm9.38-15.51a5.83 5.83 0 0 0-4.28-1.53c-.52 0-1.05.1-1.54.27a6.2 6.2 0 0 0-1.47.71c-.45.3-.84.58-1.17.84a.94.94 0 0 1-1.85 0 17.7 17.7 0 0 0-1.16-.84c-.46-.3-.96-.54-1.47-.71a4.72 4.72 0 0 0-1.54-.27 5.82 5.82 0 0 0-4.28 1.53 5.71 5.71 0 0 0-1.55 4.23 7.32 7.32 0 0 0 1.77 4.4c.31.38.53.66.68.8.1.11.2.22.33.32l7.6 7.41c.15.15.34.23.55.22.2 0 .4-.07.54-.22l7.6-7.38c1.86-1.88 2.79-3.73 2.78-5.55a5.71 5.71 0 0 0-1.54-4.23z"/></defs><g transform="translate(-1584 -53)"><use fill="#606060" xlink:href="#a"/></g></svg>