<?xml version="1.0" encoding="iso-8859-1"?>
<!-- Generator: Adobe Illustrator 16.0.0, SVG Export Plug-In . SVG Version: 6.00 Build 0)  -->
<!DOCTYPE svg PUBLIC "-//W3C//DTD SVG 1.1//EN" "http://www.w3.org/Graphics/SVG/1.1/DTD/svg11.dtd">
<svg version="1.1" id="Capa_1" xmlns="http://www.w3.org/2000/svg" xmlns:xlink="http://www.w3.org/1999/xlink" x="0px" y="0px"
	 width="599.535px" height="599.535px" viewBox="0 0 599.535 599.535" style="enable-background:new 0 0 599.535 599.535;"
	 xml:space="preserve">
<g>
	<g>
		<g>
			<path d="M540.896,89.852H58.64c-32.059,0-58.14,26.082-58.14,58.14v303.552c0,32.058,26.082,58.14,58.14,58.14h482.256
				c32.059,0,58.139-26.082,58.139-58.14V147.992C599.035,115.933,572.955,89.852,540.896,89.852z M556.195,451.544
				c0,8.449-6.85,15.3-15.299,15.3H58.64c-8.45,0-15.3-6.851-15.3-15.3V147.992c0-8.45,6.85-15.3,15.3-15.3h482.256
				c8.449,0,15.299,6.85,15.299,15.3V451.544z"/>
			<path d="M540.896,510.184H58.64c-32.334,0-58.64-26.306-58.64-58.64V147.992c0-32.334,26.306-58.64,58.64-58.64h482.256
				c32.333,0,58.639,26.306,58.639,58.64v303.552C599.535,483.878,573.229,510.184,540.896,510.184z M58.64,90.352
				C26.857,90.352,1,116.209,1,147.992v303.552c0,31.782,25.857,57.64,57.64,57.64h482.256c31.782,0,57.639-25.857,57.639-57.64
				V147.992c0-31.783-25.856-57.64-57.639-57.64H58.64z M540.896,467.344H58.64c-8.712,0-15.8-7.088-15.8-15.8V147.992
				c0-8.712,7.088-15.8,15.8-15.8h482.256c8.712,0,15.799,7.088,15.799,15.8v303.552
				C556.695,460.256,549.608,467.344,540.896,467.344z M58.64,133.191c-8.161,0-14.8,6.639-14.8,14.8v303.552
				c0,8.16,6.639,14.8,14.8,14.8h482.256c8.16,0,14.799-6.64,14.799-14.8V147.992c0-8.161-6.639-14.8-14.799-14.8H58.64z"/>
		</g>
		<g>
			<path d="M237.43,307.441c-2.227-1.765-4.516-3.434-6.863-5.006c6.598-6.998,11.839-15.023,15.591-23.892
				c4.217-9.971,6.355-20.538,6.355-31.407s-2.138-21.436-6.355-31.407c-4.064-9.609-9.874-18.231-17.267-25.624
				c-7.394-7.393-16.014-13.203-25.624-17.267c-9.971-4.218-20.538-6.356-31.407-6.356s-21.437,2.139-31.407,6.356
				c-9.609,4.064-18.23,9.874-25.623,17.267c-7.393,7.393-13.203,16.014-17.267,25.624c-4.217,9.971-6.355,20.538-6.355,31.407
				c0,10.87,2.138,21.436,6.355,31.407c3.752,8.869,8.994,16.894,15.591,23.892c-2.347,1.572-4.637,3.241-6.863,5.006
				c-18.235,14.457-31.35,34.815-36.927,57.324c-4.097,16.535-0.422,33.717,10.081,47.139c4.998,6.387,11.465,11.682,18.702,15.312
				c7.613,3.818,16.153,5.837,24.695,5.837h98.038c8.542,0,17.082-2.019,24.695-5.837c7.237-3.63,13.704-8.925,18.702-15.312
				c10.503-13.423,14.178-30.604,10.082-47.138C268.779,342.257,255.665,321.898,237.43,307.441z M171.86,209.323
				c20.884,0,37.814,16.93,37.814,37.813c0,10.598-4.55,20.866-12.395,27.99c-23.792,21.607-63.232,3.864-63.232-27.99
				C134.046,226.252,150.976,209.323,171.86,209.323z M220.879,390.213h-98.038c-7.935,0-13.804-7.441-11.896-15.144
				c3.532-14.256,12.173-27.006,24.049-35.638c31.992-23.253,78.962-10.082,94.51,25.938c1.354,3.136,2.449,6.384,3.27,9.698
				C234.683,382.771,228.813,390.213,220.879,390.213z"/>
			<path d="M220.879,433.553h-98.038c-8.62,0-17.237-2.037-24.919-5.89c-7.303-3.663-13.828-9.006-18.871-15.451
				c-10.599-13.544-14.307-30.882-10.172-47.566c5.604-22.616,18.78-43.07,37.102-57.596c2.064-1.636,4.217-3.216,6.408-4.701
				c-6.453-6.943-11.594-14.884-15.286-23.61c-4.244-10.033-6.395-20.666-6.395-31.602c0-10.937,2.151-21.569,6.395-31.602
				c4.09-9.67,9.936-18.344,17.374-25.782c7.439-7.439,16.113-13.284,25.782-17.374c10.033-4.244,20.665-6.396,31.602-6.396
				s21.569,2.152,31.602,6.396c9.668,4.089,18.342,9.935,25.782,17.374c7.438,7.438,13.284,16.112,17.374,25.782
				c4.244,10.032,6.395,20.665,6.395,31.602c0,10.937-2.151,21.569-6.395,31.602c-3.691,8.727-8.833,16.667-15.286,23.61
				c2.188,1.484,4.342,3.063,6.408,4.701c18.321,14.525,31.498,34.979,37.103,57.597c4.133,16.684,0.425,34.021-10.173,47.565
				c-5.043,6.445-11.568,11.788-18.871,15.451C238.116,431.516,229.499,433.553,220.879,433.553z M171.86,166.982
				c-10.802,0-21.304,2.125-31.212,6.317c-9.55,4.04-18.117,9.813-25.464,17.16c-7.347,7.347-13.121,15.914-17.16,25.465
				c-4.191,9.908-6.316,20.41-6.316,31.212s2.125,21.304,6.316,31.212c3.722,8.797,8.935,16.786,15.495,23.744l0.405,0.43
				l-0.491,0.328c-2.337,1.566-4.635,3.242-6.831,4.982c-18.149,14.389-31.201,34.65-36.752,57.053
				c-4.06,16.385-0.419,33.41,9.989,46.71c4.952,6.329,11.36,11.576,18.532,15.173c7.544,3.784,16.006,5.784,24.471,5.784h98.038
				c8.465,0,16.927-2,24.471-5.784c7.171-3.597,13.58-8.844,18.532-15.173c10.408-13.301,14.049-30.326,9.99-46.709
				c-5.552-22.403-18.604-42.665-36.753-57.054c-2.198-1.742-4.497-3.418-6.831-4.982l-0.491-0.328l0.405-0.43
				c6.56-6.958,11.773-14.947,15.495-23.744c4.191-9.909,6.316-20.41,6.316-31.212s-2.125-21.304-6.316-31.212
				c-4.04-9.551-9.813-18.118-17.16-25.465c-7.348-7.348-15.916-13.121-25.465-17.16
				C193.164,169.108,182.662,166.982,171.86,166.982z M220.879,390.713h-98.038c-3.952,0-7.615-1.786-10.052-4.9
				c-2.423-3.097-3.272-7.057-2.329-10.863c3.566-14.395,12.175-27.152,24.24-35.922c10.544-7.664,23.128-11.716,36.39-11.716
				c25.837,0,48.946,14.861,58.873,37.86c1.361,3.154,2.471,6.443,3.296,9.776c0.943,3.808,0.094,7.768-2.329,10.865
				C228.494,388.927,224.83,390.713,220.879,390.713z M171.091,328.312c-13.049,0-25.43,3.985-35.802,11.524
				c-11.875,8.632-20.348,21.188-23.857,35.354c-0.869,3.507-0.086,7.154,2.146,10.007c2.246,2.87,5.623,4.517,9.264,4.517h98.038
				c3.642,0,7.018-1.646,9.264-4.516c2.232-2.854,3.015-6.502,2.146-10.009c-0.812-3.28-1.904-6.517-3.244-9.62
				C219.276,342.936,196.528,328.312,171.091,328.312z M172.77,285.131c-9.848,0-19.711-3.852-27.061-10.567
				c-7.843-7.167-12.163-16.907-12.163-27.428c0-10.234,3.985-19.855,11.221-27.092c7.236-7.236,16.858-11.222,27.092-11.222
				c21.126,0,38.314,17.188,38.314,38.313c0,10.775-4.578,21.112-12.559,28.36C190.674,281.8,182.083,285.131,172.77,285.131z
				 M171.86,209.823c-9.967,0-19.337,3.881-26.385,10.929c-7.047,7.048-10.928,16.418-10.928,26.385
				c0,17.792,14.614,36.995,38.223,36.995c9.061,0,17.419-3.242,24.173-9.375c7.773-7.059,12.231-17.126,12.231-27.62
				C209.174,226.562,192.435,209.823,171.86,209.823z"/>
		</g>
		<g>
			<path d="M496.848,388.508H340.707c-11.83,0-21.42,9.59-21.42,21.42s9.59,21.42,21.42,21.42h156.141
				c11.83,0,21.42-9.59,21.42-21.42S508.678,388.508,496.848,388.508z"/>
			<path d="M496.848,431.848H340.707c-12.087,0-21.92-9.833-21.92-21.92s9.833-21.92,21.92-21.92h156.141
				c12.087,0,21.92,9.833,21.92,21.92S508.935,431.848,496.848,431.848z M340.707,389.008c-11.535,0-20.92,9.385-20.92,20.92
				s9.385,20.92,20.92,20.92h156.141c11.535,0,20.92-9.385,20.92-20.92s-9.385-20.92-20.92-20.92H340.707z"/>
		</g>
		<g>
			<path d="M496.848,277.43H340.707c-11.83,0-21.42,9.59-21.42,21.42s9.59,21.42,21.42,21.42h156.141
				c11.83,0,21.42-9.59,21.42-21.42S508.678,277.43,496.848,277.43z"/>
			<path d="M496.848,320.77H340.707c-12.087,0-21.92-9.833-21.92-21.92s9.833-21.92,21.92-21.92h156.141
				c12.087,0,21.92,9.833,21.92,21.92S508.935,320.77,496.848,320.77z M340.707,277.93c-11.535,0-20.92,9.385-20.92,20.92
				s9.385,20.92,20.92,20.92h156.141c11.535,0,20.92-9.385,20.92-20.92s-9.385-20.92-20.92-20.92H340.707z"/>
		</g>
		<g>
			<path d="M496.848,166.352H340.707c-11.83,0-21.42,9.59-21.42,21.42s9.59,21.42,21.42,21.42h156.141
				c11.83,0,21.42-9.59,21.42-21.42S508.678,166.352,496.848,166.352z"/>
			<path d="M496.848,209.691H340.707c-12.087,0-21.92-9.833-21.92-21.92s9.833-21.92,21.92-21.92h156.141
				c12.087,0,21.92,9.833,21.92,21.92S508.935,209.691,496.848,209.691z M340.707,166.852c-11.535,0-20.92,9.385-20.92,20.92
				s9.385,20.92,20.92,20.92h156.141c11.535,0,20.92-9.385,20.92-20.92s-9.385-20.92-20.92-20.92H340.707z"/>
		</g>
	</g>
</g>
<g>
</g>
<g>
</g>
<g>
</g>
<g>
</g>
<g>
</g>
<g>
</g>
<g>
</g>
<g>
</g>
<g>
</g>
<g>
</g>
<g>
</g>
<g>
</g>
<g>
</g>
<g>
</g>
<g>
</g>
</svg>
